<mxfile host="app.diagrams.net" modified="2023-05-12T16:15:12.071Z" agent="Mozilla/5.0 (Windows NT 10.0; Win64; x64; rv:109.0) Gecko/20100101 Firefox/110.0" etag="1UBmeesQBAkNkgiovJNI" version="21.1.7" type="github">
  <diagram name="第 1 页" id="dlYc7-aqfMGFKboNXZSi">
    <mxGraphModel dx="1619" dy="1113" grid="1" gridSize="10" guides="1" tooltips="1" connect="1" arrows="1" fold="1" page="1" pageScale="1" pageWidth="827" pageHeight="1169" math="0" shadow="0">
      <root>
        <mxCell id="0" />
        <mxCell id="1" parent="0" />
        <mxCell id="gboYOVQqI8aI5ZXzS-E3-2" value="" style="endArrow=none;html=1;rounded=0;strokeColor=#028090;fontColor=#E4FDE1;fillColor=#F45B69;strokeWidth=8;" edge="1" parent="1">
          <mxGeometry width="50" height="50" relative="1" as="geometry">
            <mxPoint x="480" y="720" as="sourcePoint" />
            <mxPoint x="480" y="280" as="targetPoint" />
          </mxGeometry>
        </mxCell>
        <mxCell id="gboYOVQqI8aI5ZXzS-E3-7" value="" style="rounded=0;whiteSpace=wrap;html=1;strokeColor=#028090;fontColor=#E4FDE1;fillColor=#F45B69;" vertex="1" parent="1">
          <mxGeometry x="80" y="280" width="200" height="40" as="geometry" />
        </mxCell>
        <mxCell id="gboYOVQqI8aI5ZXzS-E3-8" value="" style="rounded=0;whiteSpace=wrap;html=1;strokeColor=#d6b656;fillColor=#fff2cc;" vertex="1" parent="1">
          <mxGeometry x="80" y="320" width="200" height="150" as="geometry" />
        </mxCell>
        <mxCell id="gboYOVQqI8aI5ZXzS-E3-9" value="" style="rounded=0;whiteSpace=wrap;html=1;strokeColor=#028090;fontColor=#E4FDE1;fillColor=#F45B69;" vertex="1" parent="1">
          <mxGeometry x="80" y="470" width="200" height="90" as="geometry" />
        </mxCell>
        <mxCell id="gboYOVQqI8aI5ZXzS-E3-10" value="" style="rounded=0;whiteSpace=wrap;html=1;strokeColor=#d6b656;fillColor=#fff2cc;" vertex="1" parent="1">
          <mxGeometry x="80" y="560" width="200" height="100" as="geometry" />
        </mxCell>
        <mxCell id="gboYOVQqI8aI5ZXzS-E3-11" value="" style="rounded=0;whiteSpace=wrap;html=1;strokeColor=#028090;fontColor=#E4FDE1;fillColor=#F45B69;" vertex="1" parent="1">
          <mxGeometry x="80" y="660" width="200" height="60" as="geometry" />
        </mxCell>
        <mxCell id="gboYOVQqI8aI5ZXzS-E3-12" value="&lt;font style=&quot;font-size: 18px;&quot; color=&quot;#EA6B66&quot;&gt;Memory Address Space&lt;br&gt;&lt;/font&gt;" style="text;html=1;strokeColor=none;fillColor=none;align=center;verticalAlign=middle;whiteSpace=wrap;rounded=0;fontColor=#E4FDE1;" vertex="1" parent="1">
          <mxGeometry x="370" y="230" width="210" height="30" as="geometry" />
        </mxCell>
        <mxCell id="gboYOVQqI8aI5ZXzS-E3-14" value="&lt;div style=&quot;font-size: 18px;&quot;&gt;&lt;font style=&quot;font-size: 18px;&quot; color=&quot;#EA6B66&quot;&gt;MMIO Reset Register&lt;/font&gt;&lt;/div&gt;&lt;div style=&quot;font-size: 18px;&quot;&gt;&lt;font style=&quot;font-size: 18px;&quot; color=&quot;#EA6B66&quot;&gt;&lt;br&gt;&lt;/font&gt;&lt;/div&gt;" style="text;html=1;strokeColor=none;fillColor=none;align=center;verticalAlign=middle;whiteSpace=wrap;rounded=0;fontColor=#E4FDE1;" vertex="1" parent="1">
          <mxGeometry x="520" y="490" width="60" height="30" as="geometry" />
        </mxCell>
        <mxCell id="gboYOVQqI8aI5ZXzS-E3-15" value="&lt;font style=&quot;font-size: 18px;&quot; color=&quot;#EA6B66&quot;&gt;Device A Emulate Code&lt;br&gt;&lt;/font&gt;" style="text;html=1;strokeColor=none;fillColor=none;align=center;verticalAlign=middle;whiteSpace=wrap;rounded=0;fontColor=#E4FDE1;" vertex="1" parent="1">
          <mxGeometry x="65" y="230" width="230" height="30" as="geometry" />
        </mxCell>
        <mxCell id="gboYOVQqI8aI5ZXzS-E3-16" value="&lt;font style=&quot;font-size: 18px;&quot; color=&quot;#EA6B66&quot;&gt;DMA MMIO Handler or BH/Timer&lt;br&gt;&lt;/font&gt;" style="text;html=1;strokeColor=none;fillColor=none;align=center;verticalAlign=middle;whiteSpace=wrap;rounded=0;fontColor=#E4FDE1;" vertex="1" parent="1">
          <mxGeometry x="-50" y="320" width="100" height="30" as="geometry" />
        </mxCell>
        <mxCell id="gboYOVQqI8aI5ZXzS-E3-17" value="&lt;font style=&quot;font-size: 18px;&quot; color=&quot;#EA6B66&quot;&gt;Reset MMIO Handler&lt;br&gt;&lt;/font&gt;" style="text;html=1;strokeColor=none;fillColor=none;align=center;verticalAlign=middle;whiteSpace=wrap;rounded=0;fontColor=#E4FDE1;" vertex="1" parent="1">
          <mxGeometry x="-60" y="570" width="120" height="30" as="geometry" />
        </mxCell>
        <mxCell id="gboYOVQqI8aI5ZXzS-E3-19" value="" style="endArrow=classic;html=1;rounded=0;strokeColor=#028090;fontColor=#E4FDE1;fillColor=#F45B69;" edge="1" parent="1">
          <mxGeometry width="50" height="50" relative="1" as="geometry">
            <mxPoint x="179.5" y="320" as="sourcePoint" />
            <mxPoint x="179.5" y="370" as="targetPoint" />
          </mxGeometry>
        </mxCell>
        <mxCell id="gboYOVQqI8aI5ZXzS-E3-21" value="" style="endArrow=classic;html=1;rounded=0;strokeColor=#028090;fontColor=#E4FDE1;fillColor=#F45B69;" edge="1" parent="1">
          <mxGeometry width="50" height="50" relative="1" as="geometry">
            <mxPoint x="179.5" y="370" as="sourcePoint" />
            <mxPoint x="179.5" y="420" as="targetPoint" />
          </mxGeometry>
        </mxCell>
        <mxCell id="gboYOVQqI8aI5ZXzS-E3-22" value="" style="endArrow=classic;html=1;rounded=0;strokeColor=#028090;fontColor=#E4FDE1;fillColor=#F45B69;exitX=0.5;exitY=0;exitDx=0;exitDy=0;entryX=0.5;entryY=1;entryDx=0;entryDy=0;" edge="1" parent="1" source="gboYOVQqI8aI5ZXzS-E3-10" target="gboYOVQqI8aI5ZXzS-E3-10">
          <mxGeometry width="50" height="50" relative="1" as="geometry">
            <mxPoint x="240" y="590" as="sourcePoint" />
            <mxPoint x="290" y="540" as="targetPoint" />
          </mxGeometry>
        </mxCell>
        <mxCell id="gboYOVQqI8aI5ZXzS-E3-23" value="" style="endArrow=none;dashed=1;html=1;dashPattern=1 3;strokeWidth=2;rounded=0;strokeColor=#028090;fontColor=#E4FDE1;fillColor=#F45B69;" edge="1" parent="1">
          <mxGeometry width="50" height="50" relative="1" as="geometry">
            <mxPoint x="180" y="370" as="sourcePoint" />
            <mxPoint x="480" y="370" as="targetPoint" />
          </mxGeometry>
        </mxCell>
        <mxCell id="gboYOVQqI8aI5ZXzS-E3-24" value="" style="endArrow=none;dashed=1;html=1;dashPattern=1 3;strokeWidth=2;rounded=0;strokeColor=#028090;fontColor=#E4FDE1;fillColor=#F45B69;" edge="1" parent="1">
          <mxGeometry width="50" height="50" relative="1" as="geometry">
            <mxPoint x="180" y="370" as="sourcePoint" />
            <mxPoint x="480" y="520" as="targetPoint" />
          </mxGeometry>
        </mxCell>
        <mxCell id="gboYOVQqI8aI5ZXzS-E3-25" value="" style="endArrow=classic;html=1;rounded=0;strokeColor=#028090;fontColor=#E4FDE1;fillColor=#F45B69;entryX=0.5;entryY=1;entryDx=0;entryDy=0;" edge="1" parent="1" target="gboYOVQqI8aI5ZXzS-E3-9">
          <mxGeometry width="50" height="50" relative="1" as="geometry">
            <mxPoint x="480" y="520" as="sourcePoint" />
            <mxPoint x="290" y="540" as="targetPoint" />
          </mxGeometry>
        </mxCell>
        <mxCell id="gboYOVQqI8aI5ZXzS-E3-26" value="" style="curved=1;endArrow=classic;html=1;rounded=0;strokeColor=#028090;fontColor=#E4FDE1;fillColor=#F45B69;exitX=0.5;exitY=1;exitDx=0;exitDy=0;" edge="1" parent="1" source="gboYOVQqI8aI5ZXzS-E3-10">
          <mxGeometry width="50" height="50" relative="1" as="geometry">
            <mxPoint x="100" y="500" as="sourcePoint" />
            <mxPoint x="180" y="360" as="targetPoint" />
            <Array as="points">
              <mxPoint x="130" y="580" />
              <mxPoint x="130" y="450" />
            </Array>
          </mxGeometry>
        </mxCell>
      </root>
    </mxGraphModel>
  </diagram>
</mxfile>
